<svg xmlns="http://www.w3.org/2000/svg" xmlns:xlink="http://www.w3.org/1999/xlink" viewBox="0 0 33 33"><defs><style>.cls-1,.cls-2{fill:none;}.cls-1{clip-rule:evenodd;}.cls-3{clip-path:url(#clip-path);}.cls-4{clip-path:url(#clip-path-2);}.cls-5{fill:#ccc;}.cls-6{clip-path:url(#clip-path-3);}.cls-7{fill:#4ca0d8;}</style><clipPath id="clip-path" transform="translate(-333 -201)"><path class="cls-1" d="M349.5,206A11.5,11.5,0,1,0,361,217.5,11.5,11.5,0,0,0,349.5,206m0,21.56a10.06,10.06,0,1,1,10.06-10.06,10.06,10.06,0,0,1-10.06,10.06"/></clipPath><clipPath id="clip-path-2" transform="translate(-333 -201)"><rect class="cls-2" width="1280" height="850"/></clipPath><clipPath id="clip-path-3" transform="translate(-333 -201)"><path class="cls-1" d="M354.29,221.14l-1.94-1.94a4.31,4.31,0,1,0-1.15,1.15l1.94,1.94a.81.81,0,0,0,1.15-1.15m-5.51-1.48a2.88,2.88,0,1,1,2.88-2.88,2.88,2.88,0,0,1-2.88,2.88"/></clipPath></defs><title>Asset 1</title><g id="Layer_2" data-name="Layer 2"><g id="Layer_1-2" data-name="Layer 1"><g class="cls-3"><g class="cls-4"><rect class="cls-5" width="33" height="33"/></g></g><g class="cls-6"><g class="cls-4"><rect class="cls-7" x="6.47" y="6.47" width="20.06" height="20.06"/></g></g></g></g></svg>