<svg xmlns="http://www.w3.org/2000/svg" xmlns:xlink="http://www.w3.org/1999/xlink" viewBox="0 0 42 42"><defs><style>.cls-1,.cls-2{fill:none;}.cls-2{clip-rule:evenodd;}.cls-3{isolation:isolate;}.cls-4{clip-path:url(#clip-path);}.cls-5{clip-path:url(#clip-path-2);}.cls-6{clip-path:url(#clip-path-3);}.cls-7{clip-path:url(#clip-path-5);}.cls-8{clip-path:url(#clip-path-6);}.cls-9{fill:#ef6eaa;}.cls-10{clip-path:url(#clip-path-7);}.cls-11{fill:#fff;}.cls-12{clip-path:url(#clip-path-9);}.cls-13{fill:#9b7dac;}</style><clipPath id="clip-path" transform="translate(-15.8 -16)"><rect class="cls-1" x="20" y="21" width="33" height="32"/></clipPath><clipPath id="clip-path-2" transform="translate(-15.8 -16)"><polygon class="cls-2" points="52.8 37 52.8 53 20.8 53 20.8 37 20.8 21 52.8 21 52.8 37"/></clipPath><clipPath id="clip-path-3" transform="translate(-15.8 -16)"><rect class="cls-1" width="73" height="73"/></clipPath><clipPath id="clip-path-5" transform="translate(-15.8 -16)"><path class="cls-2" d="M50.8,34l-1.49-.49a13,13,0,0,0-1.2-2.9l.7-1.39a2,2,0,0,0,0-2.83L47.4,25a2,2,0,0,0-2.83,0l-1.39.71a13,13,0,0,0-2.9-1.2L39.8,23a2,2,0,0,0-2-2h-2a2,2,0,0,0-2,2l-.48,1.49a12.88,12.88,0,0,0-2.89,1.19L29,25a2,2,0,0,0-2.83,0l-1.41,1.41a2,2,0,0,0,0,2.83l.7,1.4a12.84,12.84,0,0,0-1.19,2.88L22.8,34a2,2,0,0,0-2,2v2a2,2,0,0,0,2,2l1.49.5a12.84,12.84,0,0,0,1.19,2.88l-.7,1.4a2,2,0,0,0,0,2.83L26.19,49A2,2,0,0,0,29,49l1.4-.7a12.86,12.86,0,0,0,2.87,1.19L33.8,51a2,2,0,0,0,2,2h2a2,2,0,0,0,2-2l.5-1.49a12.91,12.91,0,0,0,2.89-1.19l1.39.7a2,2,0,0,0,2.83,0l1.41-1.41a2,2,0,0,0,0-2.83l-.71-1.39a13,13,0,0,0,1.2-2.9L50.8,40a2,2,0,0,0,2-2V36a2,2,0,0,0-2-2"/></clipPath><clipPath id="clip-path-6" transform="translate(-15.8 -16)"><rect class="cls-1" x="20" y="21" width="33" height="33"/></clipPath><clipPath id="clip-path-7" transform="translate(-15.8 -16)"><path class="cls-2" d="M36.8,28a9,9,0,1,0,9,9,9,9,0,0,0-9-9"/></clipPath><clipPath id="clip-path-9" transform="translate(-15.8 -16)"><path class="cls-2" d="M36.8,33a4,4,0,1,0,4,4,4,4,0,0,0-4-4"/></clipPath></defs><title>Asset 5</title><g id="Layer_2" data-name="Layer 2"><g id="Layer_1-2" data-name="Layer 1"><g class="cls-3"><g class="cls-4"><g class="cls-5"><g class="cls-6"><g class="cls-3"><g class="cls-4"><g class="cls-7"><g class="cls-8"><rect class="cls-9" width="42" height="42"/></g></g></g></g></g></g><g class="cls-10"><g class="cls-6"><rect class="cls-11" x="6.98" y="6.98" width="28.04" height="28.04"/></g></g><g class="cls-12"><g class="cls-6"><rect class="cls-13" x="12" y="12" width="18" height="18"/></g></g></g></g></g></g></svg>