<svg xmlns="http://www.w3.org/2000/svg" xmlns:xlink="http://www.w3.org/1999/xlink" viewBox="0 0 42 67.82"><defs><style>.cls-1,.cls-2{fill:none;}.cls-2{clip-rule:evenodd;}.cls-3{clip-path:url(#clip-path);}.cls-4{clip-path:url(#clip-path-2);}.cls-5{isolation:isolate;}.cls-6{clip-path:url(#clip-path-3);}.cls-7{clip-path:url(#clip-path-4);}.cls-8{clip-path:url(#clip-path-5);}.cls-9{fill:#807d7d;}.cls-10{clip-path:url(#clip-path-6);}.cls-11{fill:#fff;}.cls-12{clip-path:url(#clip-path-8);}.cls-13{fill:#4ca0d8;}.cls-14{clip-path:url(#clip-path-10);}.cls-15{fill:#676767;}.cls-16{clip-path:url(#clip-path-12);}.cls-17{clip-path:url(#clip-path-14);}.cls-18{fill:#ccc;}</style><clipPath id="clip-path" transform="translate(-321.5 -110)"><rect class="cls-1" x="331.12" y="115" width="20.76" height="29.98"/></clipPath><clipPath id="clip-path-2" transform="translate(-321.5 -110)"><rect class="cls-1" width="1280" height="1054"/></clipPath><clipPath id="clip-path-3" transform="translate(-321.5 -110)"><rect class="cls-1" x="330" y="114" width="23" height="32"/></clipPath><clipPath id="clip-path-4" transform="translate(-321.5 -110)"><path class="cls-2" d="M350.3,117.56,338.57,115a2,2,0,0,0-2.37,1.54l-5,23.47a2,2,0,0,0,1.54,2.38l11.73,2.51a2,2,0,0,0,2.38-1.54l5-23.47a2,2,0,0,0-1.54-2.37"/></clipPath><clipPath id="clip-path-5" transform="translate(-321.5 -110)"><rect class="cls-1" x="331" y="115" width="21" height="30"/></clipPath><clipPath id="clip-path-6" transform="translate(-321.5 -110)"><path class="cls-2" d="M337.73,119l-4.19,19.56L345.27,141l4.19-19.56Zm1.47,21.79a1,1,0,1,0,.77,1.19A1,1,0,0,0,339.19,140.75Z"/></clipPath><clipPath id="clip-path-8" transform="translate(-321.5 -110)"><path class="cls-2" d="M342.25,129.4v-2.81c1.46.27,1.71,1.28,2.34,1.28a.74.74,0,0,0,.78-.68c0-.63-1.08-1.74-3.12-2v-.72a.79.79,0,0,0-1.56,0v.72c-1.78.19-3.12,1.07-3.12,2.66s1.52,2.16,3.12,2.53v2.79c-1.34-.29-1.66-1.27-2.34-1.27a.71.71,0,0,0-.78.68c0,.53,1,1.72,3.12,2v.73a.79.79,0,0,0,1.56,0v-.72c2.2-.2,3.12-1.23,3.12-2.66s-1.28-2.06-3.12-2.52m-3.12-1.53c0-.48.25-1.12,1.56-1.3V129c-.89-.23-1.56-.5-1.56-1.17m3.12,5.34v-2.45c1.33.36,1.56.72,1.56,1.16,0,.61-.55,1.11-1.56,1.28"/></clipPath><clipPath id="clip-path-10" transform="translate(-321.5 -110)"><path class="cls-2" d="M334.5,166.82a3,3,0,1,0,3,3,3,3,0,0,0-3-3m0,4a1,1,0,1,1,1-1,1,1,0,0,1-1,1m13-4a3,3,0,1,0,3,3,3,3,0,0,0-3-3m0,4a1,1,0,1,1,1-1,1,1,0,0,1-1,1"/></clipPath><clipPath id="clip-path-12" transform="translate(-321.5 -110)"><path class="cls-2" d="M353.5,149.82v-2h-26a1,1,0,0,0-1,1l2,12a1,1,0,0,0,1,1h22v-2h-2.43l.18-2h3.26v-2h-3.08l.17-2h3.91v-2h-3.73l.17-2Zm-18,2h-2.22l-.17-2h2.39Zm2,0h2v-2h-2Zm-6.22,0H329l-.33-2h2.44Zm-1.28,6h1.8l.18,2h-1.64Zm-.33-2-.33-2h2.12l.17,2Zm3.79-2h2v2h-1.87Zm4,2h2v-2h-2Zm4,0h2v-2h-2Zm0-4h2v-2h-2Zm-7.54,8a.79.79,0,0,0,0-.11l-.16-1.89h1.69v2Zm3.54,0h2v-2h-2Zm4,0h2v-2h-2Zm5.56,0H345.5v-2h1.73Zm.35-4H345.5v-2h2.08Zm.35-4H345.5v-2h2.43Z"/></clipPath><clipPath id="clip-path-14" transform="translate(-321.5 -110)"><path class="cls-2" d="M357.5,142.82h-4l-3.67,22H330.5a1,1,0,0,0,0,2h21l3.67-22h2.33a1,1,0,0,0,0-2"/></clipPath></defs><title>Asset 6</title><g id="Layer_2" data-name="Layer 2"><g id="Layer_1-2" data-name="Layer 1"><g class="cls-3"><g class="cls-4"><g class="cls-5"><g class="cls-6"><g class="cls-7"><g class="cls-8"><rect class="cls-9" x="4.62" width="30.76" height="39.98"/></g></g></g></g></g></g><g class="cls-10"><g class="cls-4"><rect class="cls-11" x="7.04" y="3.96" width="25.92" height="33.77"/></g></g><g class="cls-12"><g class="cls-4"><rect class="cls-13" x="11.07" y="8.82" width="17.8" height="22.16"/></g></g><g class="cls-14"><g class="cls-4"><rect class="cls-15" x="5" y="51.82" width="29" height="16"/></g></g><g class="cls-16"><g class="cls-4"><rect class="cls-13" y="32.82" width="37" height="24"/></g></g><g class="cls-17"><g class="cls-4"><rect class="cls-18" x="3" y="27.82" width="39" height="34"/></g></g></g></g></svg>