<svg xmlns="http://www.w3.org/2000/svg" xmlns:xlink="http://www.w3.org/1999/xlink" viewBox="0 0 41.95 42"><defs><style>.cls-1,.cls-2{fill:none;}.cls-1{clip-rule:evenodd;}.cls-3{clip-path:url(#clip-path);}.cls-4{clip-path:url(#clip-path-2);}.cls-5{isolation:isolate;}.cls-6{clip-path:url(#clip-path-3);}.cls-7{clip-path:url(#clip-path-4);}.cls-8{fill:#ffcc67;}.cls-9{clip-path:url(#clip-path-6);}.cls-10{fill:#88c057;}.cls-11{clip-path:url(#clip-path-8);}.cls-12{fill:#ed7161;}</style><clipPath id="clip-path" transform="translate(-136.93 -133)"><polygon class="cls-1" points="155.22 138 141.93 138 141.93 164.57 168.51 164.57 168.51 138 155.22 138"/></clipPath><clipPath id="clip-path-2" transform="translate(-136.93 -133)"><rect class="cls-2" width="1280" height="1054"/></clipPath><clipPath id="clip-path-3" transform="translate(-136.93 -133)"><rect class="cls-2" x="141" y="138" width="28" height="27"/></clipPath><clipPath id="clip-path-4" transform="translate(-136.93 -133)"><path class="cls-1" d="M157.93,138a16,16,0,0,0-12,26.57L168.51,142a15.92,15.92,0,0,0-10.57-4"/></clipPath><clipPath id="clip-path-6" transform="translate(-136.93 -133)"><path class="cls-1" d="M158.35,155l-11,11a16,16,0,0,0,26.52-11Z"/></clipPath><clipPath id="clip-path-8" transform="translate(-136.93 -133)"><path class="cls-1" d="M169.92,143.43,160.35,153h13.54a15.93,15.93,0,0,0-4-9.57"/></clipPath></defs><title>Asset 3</title><g id="Layer_2" data-name="Layer 2"><g id="Layer_1-2" data-name="Layer 1"><g class="cls-3"><g class="cls-4"><g class="cls-5"><g class="cls-6"><g class="cls-7"><g class="cls-6"><rect class="cls-8" width="36.57" height="36.57"/></g></g></g></g></g></g><g class="cls-9"><g class="cls-4"><rect class="cls-10" x="5.43" y="17" width="36.52" height="25"/></g></g><g class="cls-11"><g class="cls-4"><rect class="cls-12" x="18.42" y="5.43" width="23.54" height="19.58"/></g></g></g></g></svg>