<svg xmlns="http://www.w3.org/2000/svg" xmlns:xlink="http://www.w3.org/1999/xlink" viewBox="0 0 55.14 46.68"><defs><style>.cls-1,.cls-2{fill:none;}.cls-1{clip-rule:evenodd;}.cls-3{clip-path:url(#clip-path);}.cls-4{clip-path:url(#clip-path-2);}.cls-5{fill:#4ca0d8;}.cls-6{clip-path:url(#clip-path-3);}.cls-7{fill:#ffcc67;}.cls-8{clip-path:url(#clip-path-5);}.cls-9{fill:#88c057;}.cls-10{clip-path:url(#clip-path-7);}.cls-11{fill:#d56657;}.cls-12{clip-path:url(#clip-path-9);}.cls-13{fill:#ed7161;}.cls-14{clip-path:url(#clip-path-11);}.cls-15{fill:#989898;}</style><clipPath id="clip-path" transform="translate(-193.86 -130.02)"><path class="cls-1" d="M227.08,143.49H210.15a1.41,1.41,0,0,0-1.41,1.41v21.16a1.41,1.41,0,0,0,1.41,1.41h16.93a1.41,1.41,0,0,0,1.41-1.41V144.9a1.41,1.41,0,0,0-1.41-1.41"/></clipPath><clipPath id="clip-path-2" transform="translate(-193.86 -130.02)"><rect class="cls-2" width="1280" height="1054"/></clipPath><clipPath id="clip-path-3" transform="translate(-193.86 -130.02)"><path class="cls-1" d="M235.36,157l-9.23-15.68a1.44,1.44,0,0,0-1.94-.51l-14.76,8.35a1.38,1.38,0,0,0-.52,1.9l9.23,15.68a1.44,1.44,0,0,0,1.94.51l14.76-8.36a1.38,1.38,0,0,0,.52-1.9"/></clipPath><clipPath id="clip-path-5" transform="translate(-193.86 -130.02)"><path class="cls-1" d="M232.72,140.67H229.9a1.41,1.41,0,0,0-1.41,1.41v24a1.41,1.41,0,0,0,1.41,1.41h2.82a1.41,1.41,0,0,0,1.41-1.41v-24a1.41,1.41,0,0,0-1.41-1.41"/></clipPath><clipPath id="clip-path-7" transform="translate(-193.86 -130.02)"><path class="cls-1" d="M201.69,152l2.82,16.93a2.82,2.82,0,0,0,2.82,2.82h28.21a2.82,2.82,0,0,0,2.82-2.82L241.18,152Zm9.87,14.11a1.41,1.41,0,0,1-2.82,0v-9.87a1.41,1.41,0,0,1,2.82,0Zm5.64,0a1.41,1.41,0,0,1-2.82,0v-9.87a1.41,1.41,0,0,1,2.82,0Zm5.64,0a1.41,1.41,0,0,1-2.82,0v-9.87a1.41,1.41,0,0,1,2.82,0Zm5.64,0a1.41,1.41,0,0,1-2.82,0v-9.87a1.41,1.41,0,0,1,2.82,0Zm5.64,0a1.41,1.41,0,0,1-2.82,0v-9.87a1.41,1.41,0,0,1,2.82,0Z"/></clipPath><clipPath id="clip-path-9" transform="translate(-193.86 -130.02)"><path class="cls-1" d="M241.18,146.31h-39.5a2.82,2.82,0,1,0,0,5.64h39.5a2.82,2.82,0,0,0,0-5.64"/></clipPath><clipPath id="clip-path-11" transform="translate(-193.86 -130.02)"><path class="cls-1" d="M229.71,148.38l-7.05-12.65-.06-.07a1.34,1.34,0,0,0-.18-.22,1.51,1.51,0,0,0-.21-.19l-.06-.06a1.18,1.18,0,0,0-.16-.06,1.43,1.43,0,0,0-.28-.1,1.29,1.29,0,0,0-.27,0,1.31,1.31,0,0,0-.27,0,1.42,1.42,0,0,0-.28.1,1.18,1.18,0,0,0-.16.06l-.06.06a1.36,1.36,0,0,0-.21.19,1.41,1.41,0,0,0-.18.22l-.06.07-7.05,12.65a1.49,1.49,0,0,0,.52,2,1.38,1.38,0,0,0,1.93-.53l5.83-10.46,5.83,10.46a1.38,1.38,0,0,0,1.93.53,1.49,1.49,0,0,0,.52-2"/></clipPath></defs><title>Asset 4</title><g id="Layer_2" data-name="Layer 2"><g id="Layer_1-2" data-name="Layer 1"><g class="cls-3"><g class="cls-4"><rect class="cls-5" x="9.87" y="8.47" width="29.75" height="33.98"/></g></g><g class="cls-6"><g class="cls-4"><rect class="cls-7" x="9.86" y="5.64" width="36.83" height="36.82"/></g></g><g class="cls-8"><g class="cls-4"><rect class="cls-9" x="29.62" y="5.65" width="15.64" height="36.8"/></g></g><g class="cls-10"><g class="cls-4"><rect class="cls-11" x="2.82" y="16.93" width="49.5" height="29.75"/></g></g><g class="cls-12"><g class="cls-4"><rect class="cls-13" y="11.29" width="55.14" height="15.64"/></g></g><g class="cls-14"><g class="cls-4"><rect class="cls-15" x="14.11" width="26.93" height="25.55"/></g></g></g></g></svg>