<svg xmlns="http://www.w3.org/2000/svg" xmlns:xlink="http://www.w3.org/1999/xlink" viewBox="0 0 38 42"><defs><style>.cls-1,.cls-2{fill:none;}.cls-1{clip-rule:evenodd;}.cls-3{clip-path:url(#clip-path);}.cls-4{clip-path:url(#clip-path-2);}.cls-5{fill:#e6e6e5;}.cls-6{clip-path:url(#clip-path-3);}.cls-7{isolation:isolate;}.cls-8{clip-path:url(#clip-path-5);}.cls-9{clip-path:url(#clip-path-6);}.cls-10{fill:#fff;}.cls-11{clip-path:url(#clip-path-7);}.cls-12{fill:#818181;}.cls-13{clip-path:url(#clip-path-9);}.cls-14{fill:#989898;}.cls-15{clip-path:url(#clip-path-11);}.cls-16{clip-path:url(#clip-path-13);}.cls-17{fill:#b4b4b4;}.cls-18{clip-path:url(#clip-path-15);}</style><clipPath id="clip-path" transform="translate(-379 -135)"><path class="cls-1" d="M384,140h28v32H384Zm26,0H386a2,2,0,0,0-2,2v28a2,2,0,0,0,2,2h24a2,2,0,0,0,2-2V142A2,2,0,0,0,410,140Z"/></clipPath><clipPath id="clip-path-2" transform="translate(-379 -135)"><rect class="cls-2" width="1280" height="1054"/></clipPath><clipPath id="clip-path-3" transform="translate(-379 -135)"><polygon class="cls-1" points="384 172 412 172 412 148.31 412 145.76 412 142.89 412 140 408.76 140 384 140 384 172"/></clipPath><clipPath id="clip-path-5" transform="translate(-379 -135)"><rect class="cls-2" x="379" y="135" width="38" height="42"/></clipPath><clipPath id="clip-path-6" transform="translate(-379 -135)"><rect class="cls-2" x="384" y="140" width="28" height="32"/></clipPath><clipPath id="clip-path-7" transform="translate(-379 -135)"><rect class="cls-2" x="384" y="150" width="28" height="17"/></clipPath><clipPath id="clip-path-9" transform="translate(-379 -135)"><polygon class="cls-1" points="388 163 402.49 163 408 163 408 153 388 153 388 163"/></clipPath><clipPath id="clip-path-11" transform="translate(-379 -135)"><path class="cls-1" d="M409,153H387a1,1,0,0,0,0,2h22a1,1,0,0,0,0-2"/></clipPath><clipPath id="clip-path-13" transform="translate(-379 -135)"><path class="cls-1" d="M390,144a1,1,0,1,0,1,1,1,1,0,0,0-1-1m16,0a1,1,0,1,0,1,1,1,1,0,0,0-1-1"/></clipPath><clipPath id="clip-path-15" transform="translate(-379 -135)"><rect class="cls-2" x="395" y="143" width="6" height="4"/></clipPath></defs><title>Asset 7</title><g id="Layer_2" data-name="Layer 2"><g id="Layer_1-2" data-name="Layer 1"><g class="cls-3"><g class="cls-4"><rect class="cls-5" width="38" height="42"/></g></g><g class="cls-6"><g class="cls-4"><g class="cls-7"><g class="cls-8"><g class="cls-9"><rect class="cls-10" width="38" height="42"/></g><g class="cls-11"><g class="cls-9"><rect class="cls-12" y="10" width="38" height="27"/></g></g><g class="cls-13"><g class="cls-9"><rect class="cls-14" x="4" y="13" width="30" height="20"/></g></g><g class="cls-15"><g class="cls-9"><rect class="cls-5" x="2" y="13" width="34" height="12"/></g></g><g class="cls-16"><g class="cls-9"><rect class="cls-17" x="5" y="4" width="28" height="12"/></g></g><g class="cls-18"><g class="cls-9"><rect class="cls-14" x="11" y="3" width="16" height="14"/></g></g></g></g></g></g></g></g></svg>