<svg xmlns="http://www.w3.org/2000/svg" xmlns:xlink="http://www.w3.org/1999/xlink" viewBox="0 0 45.03 45"><defs><style>.cls-1,.cls-2{fill:none;}.cls-1{clip-rule:evenodd;}.cls-3{clip-path:url(#clip-path);}.cls-4{clip-path:url(#clip-path-2);}.cls-5{fill:#e6e6e5;}.cls-6{clip-path:url(#clip-path-3);}.cls-7{fill:#ccc;}.cls-8{clip-path:url(#clip-path-5);}.cls-9{clip-path:url(#clip-path-7);}.cls-10{fill:#ed7161;}.cls-11{clip-path:url(#clip-path-9);}.cls-12{clip-path:url(#clip-path-11);}.cls-13{fill:#676767;}</style><clipPath id="clip-path" transform="translate(-76.97 -131)"><path class="cls-1" d="M109.34,143.66v-5.47a2.19,2.19,0,0,0-2.19-2.19H87.44a2.19,2.19,0,0,0-2.19,2.19v5.47c0,4.38-3.28,6.56-3.28,19.69,0,0,30.65,0,30.65,0,0-13.12-3.28-15.31-3.28-19.69"/></clipPath><clipPath id="clip-path-2" transform="translate(-76.97 -131)"><rect class="cls-2" width="1280" height="1054"/></clipPath><clipPath id="clip-path-3" transform="translate(-76.97 -131)"><path class="cls-1" d="M82,163.34v5.47A2.19,2.19,0,0,0,84.16,171h26.28a2.19,2.19,0,0,0,2.19-2.19v-5.47Z"/></clipPath><clipPath id="clip-path-5" transform="translate(-76.97 -131)"><path class="cls-1" d="M110.43,140.38h-1.09v2.19h1.09a1.09,1.09,0,0,1,1.09,1.09v5.47h2.19v-5.47a3.28,3.28,0,0,0-3.28-3.28"/></clipPath><clipPath id="clip-path-7" transform="translate(-76.97 -131)"><path class="cls-1" d="M115.91,148h-3.28a1.09,1.09,0,1,0,0,2.19h3.28a1.09,1.09,0,1,0,0-2.19"/></clipPath><clipPath id="clip-path-9" transform="translate(-76.97 -131)"><path class="cls-1" d="M90.72,146.94A1.09,1.09,0,1,0,91.82,148a1.09,1.09,0,0,0-1.09-1.09m4.38,0A1.09,1.09,0,1,0,96.2,148a1.09,1.09,0,0,0-1.09-1.09m4.38,0a1.09,1.09,0,1,0,1.09,1.09,1.09,1.09,0,0,0-1.09-1.09m4.38,2.19a1.09,1.09,0,1,0-1.09-1.09,1.09,1.09,0,0,0,1.09,1.09m-13.14,2.19a1.09,1.09,0,1,0,1.09,1.09,1.09,1.09,0,0,0-1.09-1.09m4.38,0a1.09,1.09,0,1,0,1.09,1.09,1.09,1.09,0,0,0-1.09-1.09m4.38,0a1.09,1.09,0,1,0,1.09,1.09,1.09,1.09,0,0,0-1.09-1.09m4.38,0a1.09,1.09,0,1,0,1.09,1.09,1.09,1.09,0,0,0-1.09-1.09m-13.14,4.38a1.09,1.09,0,1,0,1.09,1.09,1.09,1.09,0,0,0-1.09-1.09m4.38,0a1.09,1.09,0,1,0,1.09,1.09,1.09,1.09,0,0,0-1.09-1.09m4.38,0a1.09,1.09,0,1,0,1.09,1.09,1.09,1.09,0,0,0-1.09-1.09m4.38,0a1.09,1.09,0,1,0,1.09,1.09,1.09,1.09,0,0,0-1.09-1.09"/></clipPath><clipPath id="clip-path-11" transform="translate(-76.97 -131)"><path class="cls-1" d="M103.86,138.19H90.72a1.09,1.09,0,0,0-1.09,1.09v2.19a1.09,1.09,0,0,0,1.09,1.09h13.14a1.09,1.09,0,0,0,1.09-1.09v-2.19a1.09,1.09,0,0,0-1.09-1.09"/></clipPath></defs><title>Asset 2</title><g id="Layer_2" data-name="Layer 2"><g id="Layer_1-2" data-name="Layer 1"><g class="cls-3"><g class="cls-4"><rect class="cls-5" width="40.65" height="37.34"/></g></g><g class="cls-6"><g class="cls-4"><rect class="cls-7" y="27.34" width="40.65" height="17.66"/></g></g><g class="cls-8"><g class="cls-4"><rect class="cls-7" x="27.37" y="4.38" width="14.38" height="18.75"/></g></g><g class="cls-9"><g class="cls-4"><rect class="cls-10" x="29.56" y="12.03" width="15.47" height="12.19"/></g></g><g class="cls-11"><g class="cls-4"><rect class="cls-10" x="7.66" y="10.94" width="25.33" height="20.94"/></g></g><g class="cls-12"><g class="cls-4"><rect class="cls-13" x="7.66" y="2.19" width="25.33" height="14.38"/></g></g></g></g></svg>