<svg xmlns="http://www.w3.org/2000/svg" xmlns:xlink="http://www.w3.org/1999/xlink" viewBox="0 0 22.2 22"><defs><style>.cls-1,.cls-2{fill:none;}.cls-1{clip-rule:evenodd;}.cls-3{clip-path:url(#clip-path);}.cls-4{clip-path:url(#clip-path-2);}.cls-5{fill:#ccc;}.cls-6{clip-path:url(#clip-path-3);}.cls-7{fill:#fff;}</style><clipPath id="clip-path" transform="translate(-820 -458)"><path class="cls-1" d="M831.1,463a6,6,0,1,0,6.1,6,6.05,6.05,0,0,0-6.1-6m0,11.25a5.25,5.25,0,1,1,5.34-5.25,5.29,5.29,0,0,1-5.34,5.25"/></clipPath><clipPath id="clip-path-2" transform="translate(-820 -458)"><rect class="cls-2" width="1280" height="1054"/></clipPath><clipPath id="clip-path-3" transform="translate(-820 -458)"><path class="cls-1" d="M834.14,469a.41.41,0,0,0-.18-.36l-2.29-1.43a.36.36,0,0,0-.52.15.43.43,0,0,0,.14.56l1.78,1.11-1.78,1.11a.43.43,0,0,0-.14.56.36.36,0,0,0,.52.15l2.29-1.43a.41.41,0,0,0,.18-.36V469m-2.29.05s0,0,0,0,0,0,0,0a.41.41,0,0,0-.18-.36l-2.28-1.43a.37.37,0,0,0-.2-.06.38.38,0,0,0-.38.38v3a.37.37,0,0,0,.57.32l2.29-1.43a.41.41,0,0,0,.18-.36"/></clipPath></defs><title>Asset 4</title><g id="Layer_2" data-name="Layer 2"><g id="Layer_1-2" data-name="Layer 1"><g class="cls-3"><g class="cls-4"><rect class="cls-5" width="22.2" height="22"/></g></g><g class="cls-6"><g class="cls-4"><rect class="cls-7" x="3.81" y="4.12" width="15.33" height="13.75"/></g></g></g></g></svg>