<svg xmlns="http://www.w3.org/2000/svg" xmlns:xlink="http://www.w3.org/1999/xlink" viewBox="0 0 22.2 22"><defs><style>.cls-1,.cls-2,.cls-3{fill:none;}.cls-1{clip-rule:evenodd;}.cls-3{fill-rule:evenodd;}.cls-4{clip-path:url(#clip-path);}.cls-5{clip-path:url(#clip-path-2);}.cls-6{fill:#ccc;}.cls-7{clip-path:url(#clip-path-3);}.cls-8{fill:#fff;}</style><clipPath id="clip-path" transform="translate(-203 -458)"><path class="cls-1" d="M214.1,463a6,6,0,1,0,6.1,6,6.05,6.05,0,0,0-6.1-6m0,11.25a5.25,5.25,0,1,1,5.34-5.25,5.29,5.29,0,0,1-5.34,5.25"/></clipPath><clipPath id="clip-path-2" transform="translate(-203 -458)"><rect class="cls-2" width="1280" height="1054"/></clipPath><clipPath id="clip-path-3" transform="translate(-203 -458)"><path class="cls-1" d="M212.57,467.12a.38.38,0,0,0-.38.38v3a.38.38,0,0,0,.76,0v-3a.38.38,0,0,0-.38-.38m3.05,0a.38.38,0,0,0-.2.06l-2.28,1.43a.41.41,0,0,0-.18.36V469a.41.41,0,0,0,.18.36l2.29,1.43a.37.37,0,0,0,.57-.32v-3a.38.38,0,0,0-.38-.38"/></clipPath></defs><title>Asset 1</title><g id="Layer_2" data-name="Layer 2"><g id="Layer_1-2" data-name="Layer 1"><g class="cls-4"><g class="cls-5"><rect class="cls-6" width="22.2" height="22"/></g></g><g class="cls-7"><g class="cls-5"><rect class="cls-8" x="4.19" y="4.12" width="13.81" height="13.75"/></g></g><g class="cls-4"><g class="cls-5"><rect class="cls-6" width="22.2" height="22"/></g></g><g class="cls-7"><g class="cls-5"><rect class="cls-8" x="4.19" y="4.12" width="13.81" height="13.75"/></g></g></g></g></svg>